<svg width="47" height="39" viewBox="0 0 47 39" fill="none" xmlns="http://www.w3.org/2000/svg">
<path d="M1 37.5375H45.4219" stroke="#07272D" stroke-width="1.25" stroke-linecap="round" stroke-linejoin="round"/>
<path d="M22.6153 16.5707C22.6153 16.5707 3.81644 12.9583 2.29453 2.12075C2.29453 2.12075 7.98185 -0.240287 13.5226 4.01897C19.0634 8.27823 21.4032 12.1961 22.6153 16.5707Z" stroke="#07272D" stroke-width="1.25" stroke-miterlimit="10" stroke-linecap="round" stroke-linejoin="round"/>
<path d="M25.7667 24.2094C25.7667 24.2094 42.622 22.0726 44.6751 10.9123C44.6751 10.9123 39.8013 7.96007 34.6248 11.9184C29.4483 15.8767 27.1238 19.7563 25.7667 24.2094Z" stroke="#07272D" stroke-width="1.25" stroke-miterlimit="10" stroke-linecap="round" stroke-linejoin="round"/>
<path d="M7.77539 5.28687C11.3819 7.398 12.1248 7.93501 13.4996 8.87015C13.8067 9.06555 17.5617 11.6358 17.5617 11.6358C20.2271 13.5459 25.8519 17.2712 25.3531 27.5787V37.5373" stroke="#07272D" stroke-width="1.25" stroke-miterlimit="10" stroke-linecap="round" stroke-linejoin="round"/>
<path d="M26.6543 23.1713C30.7722 20.0529 39.0823 14.123 39.706 13.6432" stroke="#07272D" stroke-width="1.25" stroke-linecap="round" stroke-linejoin="round"/>
</svg>
